<?xml version="1.0" encoding="UTF-8"?>
<!DOCTYPE svg PUBLIC "-//W3C//DTD SVG 1.1//EN" "http://www.w3.org/Graphics/SVG/1.1/DTD/svg11.dtd">
<svg width="160mm" height="90mm" viewBox="0 0 16000 9000" version="1.1" xmlns="http://www.w3.org/2000/svg" stroke-width="28.222" stroke-linejoin="round" xml:space="preserve">
 <path fill="rgb(255,255,255)" stroke="none" d="M 8000,8458 L 0,8458 0,0 15999,0 15999,8458 8000,8458 Z"/>
 <path fill="none" stroke="rgb(179,179,179)" stroke-linejoin="round" d="M 6448,7665 L 778,7665 778,365 12118,365 12118,7665 6448,7665 Z"/>
 <path fill="none" stroke="rgb(179,179,179)" stroke-linejoin="round" d="M 12118,7664 L 778,7664"/>
 <path fill="none" stroke="rgb(179,179,179)" stroke-linejoin="round" d="M 12118,6852 L 778,6852"/>
 <path fill="none" stroke="rgb(179,179,179)" stroke-linejoin="round" d="M 12118,6041 L 778,6041"/>
 <path fill="none" stroke="rgb(179,179,179)" stroke-linejoin="round" d="M 12118,5230 L 778,5230"/>
 <path fill="none" stroke="rgb(179,179,179)" stroke-linejoin="round" d="M 12118,4419 L 778,4419"/>
 <path fill="none" stroke="rgb(179,179,179)" stroke-linejoin="round" d="M 12118,3608 L 778,3608"/>
 <path fill="none" stroke="rgb(179,179,179)" stroke-linejoin="round" d="M 12118,2797 L 778,2797"/>
 <path fill="none" stroke="rgb(179,179,179)" stroke-linejoin="round" d="M 12118,1986 L 778,1986"/>
 <path fill="none" stroke="rgb(179,179,179)" stroke-linejoin="round" d="M 12118,1175 L 778,1175"/>
 <path fill="none" stroke="rgb(179,179,179)" stroke-linejoin="round" d="M 12118,364 L 778,364"/>
 <path fill="none" stroke="rgb(179,179,179)" stroke-linejoin="round" d="M 778,7805 L 778,7664"/>
 <path fill="none" stroke="rgb(179,179,179)" stroke-linejoin="round" d="M 778,7805 L 778,7664"/>
 <path fill="none" stroke="rgb(179,179,179)" stroke-linejoin="round" d="M 1912,7805 L 1912,7664"/>
 <path fill="none" stroke="rgb(179,179,179)" stroke-linejoin="round" d="M 1912,7805 L 1912,7664"/>
 <path fill="none" stroke="rgb(179,179,179)" stroke-linejoin="round" d="M 3046,7805 L 3046,7664"/>
 <path fill="none" stroke="rgb(179,179,179)" stroke-linejoin="round" d="M 3046,7805 L 3046,7664"/>
 <path fill="none" stroke="rgb(179,179,179)" stroke-linejoin="round" d="M 4180,7805 L 4180,7664"/>
 <path fill="none" stroke="rgb(179,179,179)" stroke-linejoin="round" d="M 4180,7805 L 4180,7664"/>
 <path fill="none" stroke="rgb(179,179,179)" stroke-linejoin="round" d="M 5314,7805 L 5314,7664"/>
 <path fill="none" stroke="rgb(179,179,179)" stroke-linejoin="round" d="M 5314,7805 L 5314,7664"/>
 <path fill="none" stroke="rgb(179,179,179)" stroke-linejoin="round" d="M 6448,7805 L 6448,7664"/>
 <path fill="none" stroke="rgb(179,179,179)" stroke-linejoin="round" d="M 6448,7805 L 6448,7664"/>
 <path fill="none" stroke="rgb(179,179,179)" stroke-linejoin="round" d="M 7582,7805 L 7582,7664"/>
 <path fill="none" stroke="rgb(179,179,179)" stroke-linejoin="round" d="M 7582,7805 L 7582,7664"/>
 <path fill="none" stroke="rgb(179,179,179)" stroke-linejoin="round" d="M 8715,7805 L 8715,7664"/>
 <path fill="none" stroke="rgb(179,179,179)" stroke-linejoin="round" d="M 8715,7805 L 8715,7664"/>
 <path fill="none" stroke="rgb(179,179,179)" stroke-linejoin="round" d="M 9849,7805 L 9849,7664"/>
 <path fill="none" stroke="rgb(179,179,179)" stroke-linejoin="round" d="M 9849,7805 L 9849,7664"/>
 <path fill="none" stroke="rgb(179,179,179)" stroke-linejoin="round" d="M 10983,7805 L 10983,7664"/>
 <path fill="none" stroke="rgb(179,179,179)" stroke-linejoin="round" d="M 10983,7805 L 10983,7664"/>
 <path fill="none" stroke="rgb(179,179,179)" stroke-linejoin="round" d="M 12118,7805 L 12118,7664"/>
 <path fill="none" stroke="rgb(179,179,179)" stroke-linejoin="round" d="M 12118,7805 L 12118,7664"/>
 <path fill="none" stroke="rgb(179,179,179)" stroke-linejoin="round" d="M 778,7664 L 12118,7664"/>
 <path fill="none" stroke="rgb(179,179,179)" stroke-linejoin="round" d="M 628,7664 L 778,7664"/>
 <path fill="none" stroke="rgb(179,179,179)" stroke-linejoin="round" d="M 628,7664 L 778,7664"/>
 <path fill="none" stroke="rgb(179,179,179)" stroke-linejoin="round" d="M 628,6852 L 778,6852"/>
 <path fill="none" stroke="rgb(179,179,179)" stroke-linejoin="round" d="M 628,6852 L 778,6852"/>
 <path fill="none" stroke="rgb(179,179,179)" stroke-linejoin="round" d="M 628,6041 L 778,6041"/>
 <path fill="none" stroke="rgb(179,179,179)" stroke-linejoin="round" d="M 628,6041 L 778,6041"/>
 <path fill="none" stroke="rgb(179,179,179)" stroke-linejoin="round" d="M 628,5230 L 778,5230"/>
 <path fill="none" stroke="rgb(179,179,179)" stroke-linejoin="round" d="M 628,5230 L 778,5230"/>
 <path fill="none" stroke="rgb(179,179,179)" stroke-linejoin="round" d="M 628,4419 L 778,4419"/>
 <path fill="none" stroke="rgb(179,179,179)" stroke-linejoin="round" d="M 628,4419 L 778,4419"/>
 <path fill="none" stroke="rgb(179,179,179)" stroke-linejoin="round" d="M 628,3608 L 778,3608"/>
 <path fill="none" stroke="rgb(179,179,179)" stroke-linejoin="round" d="M 628,3608 L 778,3608"/>
 <path fill="none" stroke="rgb(179,179,179)" stroke-linejoin="round" d="M 628,2797 L 778,2797"/>
 <path fill="none" stroke="rgb(179,179,179)" stroke-linejoin="round" d="M 628,2797 L 778,2797"/>
 <path fill="none" stroke="rgb(179,179,179)" stroke-linejoin="round" d="M 628,1986 L 778,1986"/>
 <path fill="none" stroke="rgb(179,179,179)" stroke-linejoin="round" d="M 628,1986 L 778,1986"/>
 <path fill="none" stroke="rgb(179,179,179)" stroke-linejoin="round" d="M 628,1175 L 778,1175"/>
 <path fill="none" stroke="rgb(179,179,179)" stroke-linejoin="round" d="M 628,1175 L 778,1175"/>
 <path fill="none" stroke="rgb(179,179,179)" stroke-linejoin="round" d="M 628,364 L 778,364"/>
 <path fill="none" stroke="rgb(179,179,179)" stroke-linejoin="round" d="M 628,364 L 778,364"/>
 <path fill="none" stroke="rgb(179,179,179)" stroke-linejoin="round" d="M 778,7664 L 778,364"/>
 <path fill="none" stroke="rgb(0,69,134)" stroke-width="80" stroke-linejoin="round" d="M 891,1304 L 1004,1519 1118,2484 1231,6411 1345,5426 1458,5713 1571,4373 1685,5273 1798,4553 1912,6131 2025,5617 2138,4787 2252,6189 2365,4982 2479,6433 2592,4446 2705,5860 2819,5398 2932,6814 3046,6493 3159,5457 3273,6474 3386,6344 3499,5921 3613,5768 3726,6080 3840,6081 3953,6074 4066,5570 4180,6362 4293,5496 4407,6550 4520,5286 4633,6195 4747,6897 4860,6971 4974,5203 5087,7015 5200,6626 5314,6335 5427,6052 5541,6300 5654,6701 5768,6361 5881,6920 5994,6929 6108,6995 6221,6592 6335,6699 6448,6809 6561,7006 6675,6866 6788,7063 6902,6817 7015,6752 7128,7052 7242,6472 7355,7107 7469,6779 7582,6977 7696,6923 7809,7112 7922,6857 8035,6602 8148,6869 8262,7184 8375,6973 8488,7195 8602,7421 8715,7381 8829,6827 8942,7339 9055,7084 9169,7224 9282,7415 9396,7095 9509,7329 9622,7260 9736,7278 9849,7339 9963,7239 10076,7368 10190,7292 10303,7329 10416,7423 10530,7376 10643,7354 10757,7376 10870,7548 10983,7496 11097,7498 11210,7468 11324,7632"/>
 <text class="TextShape"><tspan class="TextParagraph" font-family="Liberation Sans, sans-serif" font-size="332px" font-weight="400"><tspan class="TextPosition" x="321" y="7775"><tspan fill="rgb(0,0,0)" stroke="none">0</tspan></tspan></tspan></text>
 <text class="TextShape"><tspan class="TextParagraph" font-family="Liberation Sans, sans-serif" font-size="332px" font-weight="400"><tspan class="TextPosition" x="321" y="6963"><tspan fill="rgb(0,0,0)" stroke="none">1</tspan></tspan></tspan></text>
 <text class="TextShape"><tspan class="TextParagraph" font-family="Liberation Sans, sans-serif" font-size="332px" font-weight="400"><tspan class="TextPosition" x="321" y="6152"><tspan fill="rgb(0,0,0)" stroke="none">2</tspan></tspan></tspan></text>
 <text class="TextShape"><tspan class="TextParagraph" font-family="Liberation Sans, sans-serif" font-size="332px" font-weight="400"><tspan class="TextPosition" x="321" y="5341"><tspan fill="rgb(0,0,0)" stroke="none">3</tspan></tspan></tspan></text>
 <text class="TextShape"><tspan class="TextParagraph" font-family="Liberation Sans, sans-serif" font-size="332px" font-weight="400"><tspan class="TextPosition" x="321" y="4530"><tspan fill="rgb(0,0,0)" stroke="none">4</tspan></tspan></tspan></text>
 <text class="TextShape"><tspan class="TextParagraph" font-family="Liberation Sans, sans-serif" font-size="332px" font-weight="400"><tspan class="TextPosition" x="321" y="3719"><tspan fill="rgb(0,0,0)" stroke="none">5</tspan></tspan></tspan></text>
 <text class="TextShape"><tspan class="TextParagraph" font-family="Liberation Sans, sans-serif" font-size="332px" font-weight="400"><tspan class="TextPosition" x="321" y="2908"><tspan fill="rgb(0,0,0)" stroke="none">6</tspan></tspan></tspan></text>
 <text class="TextShape"><tspan class="TextParagraph" font-family="Liberation Sans, sans-serif" font-size="332px" font-weight="400"><tspan class="TextPosition" x="321" y="2097"><tspan fill="rgb(0,0,0)" stroke="none">7</tspan></tspan></tspan></text>
 <text class="TextShape"><tspan class="TextParagraph" font-family="Liberation Sans, sans-serif" font-size="332px" font-weight="400"><tspan class="TextPosition" x="321" y="1286"><tspan fill="rgb(0,0,0)" stroke="none">8</tspan></tspan></tspan></text>
 <text class="TextShape"><tspan class="TextParagraph" font-family="Liberation Sans, sans-serif" font-size="332px" font-weight="400"><tspan class="TextPosition" x="321" y="475"><tspan fill="rgb(0,0,0)" stroke="none">9</tspan></tspan></tspan></text>
 <path fill="none" stroke="rgb(0,69,134)" stroke-width="80" stroke-linejoin="round" d="M 13176,4228 L 13976,4228"/>
 <text class="TextShape"><tspan class="TextParagraph" font-family="Liberation Sans, sans-serif" font-size="332px" font-weight="400"><tspan class="TextPosition" x="14076" y="4339"><tspan fill="rgb(0,0,0)" stroke="none">Column B</tspan></tspan></tspan></text>
</svg>